<svg width="714" height="87" xmlns="http://www.w3.org/2000/svg"><g fill="none" fill-rule="evenodd"><path d="M136.12 39.07V19.267c0-1.83 1.304-2.68 3.13-2.68 1.825 0 3.064.85 3.064 2.68v44.896c0 2.549-1.304 4.117-3.912 4.117-2.803 0-3.846-1.11-5.476-3.725L115.648 36.52c-2.608-4.182-5.867-10.587-7.367-13.854.391 4.182.913 13.266.913 22.873v20.063c0 1.764-1.304 2.68-3.065 2.68-1.825 0-3.129-.916-3.129-2.68V20.509c0-2.418 1.565-3.92 4.107-3.92 2.934 0 4.043 1.175 5.281 3.136l16.43 26.729c3 4.901 6.65 11.894 8.345 15.553-.39-4.051-1.043-13.527-1.043-22.938Zm21.483 10.063V19.268c0-1.83 1.304-2.68 3.195-2.68 1.695 0 3.064.85 3.064 2.68v29.67c0 9.606 4.694 14.376 13.496 14.376 8.997 0 13.691-4.836 13.691-14.442V19.268c0-1.83 1.304-2.68 3.13-2.68 1.825 0 3.13.85 3.13 2.68v29.865c0 12.94-6.977 19.867-19.886 19.867-12.583 0-19.82-6.731-19.82-19.867ZM226.81 38.09l4.825.98c10.17 2.157 15.712 5.62 15.712 15.096 0 8.43-6.454 14.77-18.125 14.77-14.865 0-17.929-7.712-19.494-13.005-.065-.327-.13-.588-.13-.85 0-1.438 1.108-2.418 2.477-2.745.392-.065.718-.13 1.109-.13 1.239 0 2.477.588 2.868 1.96 1.174 4.379 3.326 9.28 12.844 9.28 7.433 0 12.062-3.594 12.062-9.214 0-5.36-2.934-7.712-10.627-9.28l-5.216-1.111c-9.78-2.026-14.213-5.751-14.213-14.312 0-6.862 5.085-13.528 17.342-13.528 11.736 0 15.778 6.274 17.213 10.979.13.327.195.654.195.98 0 1.373-1.108 2.353-2.412 2.614-.326.066-.717.131-1.109.131-1.173 0-2.347-.523-2.868-1.895-1.043-3.725-3.782-7.385-11.019-7.385-7.563 0-11.018 3.79-11.018 8.104 0 4.705 2.282 7.123 9.584 8.56ZM280.5 16c11.475 0 16.626 6.012 18.973 11.763.195.458.26.915.26 1.307 0 1.373-1.043 2.288-2.02 2.614a4.374 4.374 0 0 1-1.565.262c-1.109 0-2.152-.458-2.739-1.7-1.956-4.705-5.215-8.56-12.648-8.56-9.78 0-16.234 7.907-16.234 20.781 0 12.613 6.454 20.717 16.234 20.717 7.824 0 11.54-4.706 13.235-9.934.522-1.437 1.695-2.026 2.934-2.026.391 0 .848.066 1.304.196 1.108.262 2.282 1.242 2.282 2.615 0 .392-.065.718-.196 1.11-2.282 6.47-7.758 13.79-19.363 13.79-14.018 0-22.95-10.26-22.95-26.533C258.007 26.522 266.94 16 280.5 16Zm38.239 28.036v16.076c0 1.503.978 2.091 2.412 2.091h23.34c1.696 0 2.608 1.177 2.608 2.81 0 1.569-.912 2.876-2.607 2.876H319.26c-4.629 0-6.65-2.026-6.65-6.993V24.038c0-5.032 2.021-7.058 6.65-7.058h24.645c1.695 0 2.608 1.177 2.608 2.81 0 1.634-.913 2.876-2.608 2.876h-22.95c-1.564 0-2.216.719-2.216 2.287v13.528h22.232c1.63 0 2.543 1.176 2.543 2.81 0 1.503-.978 2.745-2.543 2.745h-22.232Zm73.314-4.967V19.268c0-1.83 1.304-2.68 3.13-2.68 1.825 0 3.064.85 3.064 2.68v44.896c0 2.549-1.304 4.117-3.912 4.117-2.803 0-3.847-1.11-5.477-3.725L371.581 36.52c-2.608-4.182-5.868-10.587-7.367-13.854.391 4.182.913 13.266.913 22.873v20.063c0 1.764-1.304 2.68-3.065 2.68-1.825 0-3.13-.916-3.13-2.68V20.509c0-2.418 1.566-3.92 4.108-3.92 2.934 0 4.042 1.175 5.281 3.136l16.43 26.729c3 4.901 6.65 11.894 8.345 15.553-.39-4.051-1.043-13.527-1.043-22.938Zm27.807 4.967v16.076c0 1.503.978 2.091 2.412 2.091h23.34c1.696 0 2.609 1.177 2.609 2.81 0 1.569-.913 2.876-2.608 2.876H420.38c-4.629 0-6.65-2.026-6.65-6.993V24.038c0-5.032 2.021-7.058 6.65-7.058h24.645c1.695 0 2.608 1.177 2.608 2.81 0 1.634-.913 2.876-2.608 2.876h-22.95c-1.564 0-2.216.719-2.216 2.287v13.528h22.232c1.63 0 2.543 1.176 2.543 2.81 0 1.503-.978 2.745-2.543 2.745H419.86Zm54.603-5.947 4.824.98C489.458 41.226 495 44.69 495 54.165c0 8.43-6.455 14.77-18.125 14.77-14.865 0-17.93-7.712-19.494-13.005-.065-.327-.13-.588-.13-.85 0-1.438 1.108-2.418 2.477-2.745.391-.065.717-.13 1.109-.13 1.238 0 2.477.588 2.868 1.96 1.174 4.379 3.325 9.28 12.844 9.28 7.433 0 12.062-3.594 12.062-9.214 0-5.36-2.934-7.712-10.628-9.28l-5.215-1.111c-9.78-2.026-14.213-5.751-14.213-14.312 0-6.862 5.085-13.528 17.342-13.528 11.736 0 15.778 6.274 17.212 10.979.13.327.196.654.196.98 0 1.373-1.108 2.353-2.412 2.614-.326.066-.718.131-1.109.131-1.173 0-2.347-.523-2.868-1.895-1.044-3.725-3.782-7.385-11.019-7.385-7.563 0-11.018 3.79-11.018 8.104 0 4.705 2.282 7.123 9.584 8.56Z" fill="#FFF" fill-rule="nonzero"/><path d="M14.343 41.072a3.585 3.585 0 0 1 .008 5.07 3.585 3.585 0 0 1-5.07-.008 3.585 3.585 0 0 1-.009-5.07 3.585 3.585 0 0 1 5.07.008Zm66.194 10.73c1.406 1.406 1.738 3.082.29 4.53L66.3 70.86C56.06 81.1 45.203 81.21 35.26 71.269c-9.69-9.692-9.937-20.594.46-30.99l9.532-9.532c1.448-1.448 3.125-1.116 4.58.34 1.306 1.306 1.688 3.033.24 4.48l-9.376 9.377c-7.604 7.604-7.764 14.995-.985 21.774 6.929 6.93 14.372 6.717 21.976-.887l14.319-14.319c1.448-1.448 3.125-1.116 4.53.29ZM64.939 17.04c9.692 9.69 9.938 20.592-.46 30.989l-9.53 9.531c-1.449 1.449-3.126 1.117-4.582-.34-1.305-1.305-1.687-3.032-.24-4.48l9.377-9.376c7.604-7.604 7.764-14.995.985-21.774-6.929-6.93-14.372-6.717-21.976.886L23.182 37.808c-1.449 1.448-3.125 1.116-4.531-.29-1.406-1.406-1.738-3.082-.29-4.53L33.9 17.447c10.241-10.24 21.097-10.35 31.04-.408Zm25.256 24.962a3.585 3.585 0 0 1 .007 5.07 3.585 3.585 0 0 1-5.07-.007 3.585 3.585 0 0 1-.008-5.07 3.585 3.585 0 0 1 5.07.007Z" fill="#2FD5C1"/><text font-family="HiraMaruPro-W4, Hiragino Maru Gothic Pro" font-size="25.01" letter-spacing="1.563" fill="#FFF">
            <tspan x="512" y="66">by</tspan>
        </text><path d="m578.98 48.404-6.038 20.25h-4.912l-6.038-20.666-2.49 20.666H555l3.172-25.096h6.652l5.764 20.25 6.038-20.25h6.31l3.036 25.096h-4.605l-2.388-20.25Zm28.673 11.18c0 5.608-3.99 9.416-9.755 9.416-5.765 0-9.756-3.808-9.756-9.415 0-5.574 3.991-9.381 9.756-9.381 5.764 0 9.755 3.807 9.755 9.38Zm-4.366 0c0-3.461-2.149-5.642-5.321-5.642-3.31 0-5.424 2.216-5.424 5.677 0 3.462 2.115 5.608 5.39 5.608 3.274 0 5.355-2.216 5.355-5.642Zm49.743 0c0 5.608-3.99 9.416-9.756 9.416-5.764 0-9.755-3.808-9.755-9.415 0-5.574 3.99-9.381 9.755-9.381 5.765 0 9.756 3.807 9.756 9.38Zm-4.366 0c0-3.461-2.15-5.642-5.322-5.642-3.308 0-5.423 2.216-5.423 5.677 0 3.462 2.115 5.608 5.39 5.608 3.274 0 5.355-2.216 5.355-5.642Zm11.743-9.034.375 2.63c1.057-1.834 3.274-2.976 5.764-2.976 4.23 0 6.515 2.63 6.515 7.061v11.389h-4.297V57.888c0-2.665-1.33-4.015-3.616-4.015-2.627 0-4.4 1.904-4.4 5.054v9.727h-4.298V50.55h3.957Zm22.938 7.788 5.662-.623v-.588c0-2.25-1.432-3.462-3.717-3.462-2.423 0-3.957 1.177-3.855 3.081h-4.059c.068-3.946 3.308-6.542 8.255-6.542 4.536 0 7.675 2.457 7.675 7.684v10.766h-3.753l-.239-3.116c-.477 1.004-1.364 1.835-2.626 2.493-1.262.658-2.592.969-4.06.969-3.41 0-5.764-2.043-5.764-5.192 0-3.185 2.354-5.054 6.481-5.47Zm5.662 2.008-4.707.589c-2.08.242-3.104 1.073-3.104 2.457 0 1.385 1.024 2.216 2.831 2.216 2.968 0 4.913-2.424 4.98-4.639v-.623ZM702 42.692v25.962h-4.298V42.692H702Zm-74.063 4.535c1.808 0 2.933-1.143 2.933-2.665 0-1.489-1.125-2.562-2.933-2.562-1.876 0-2.968 1.073-2.968 2.562 0 1.522 1.092 2.665 2.968 2.665Zm-9.585-3.966-4.298 2.225v5.064h-5.014v3.6h5.014v14.504h4.298V54.15h7.436v14.504h4.298V50.55h-11.734v-7.29Z" fill="#FFF" fill-rule="nonzero"/></g></svg>