<svg width="956" height="307" viewBox="0 0 956 307" fill="none" xmlns="http://www.w3.org/2000/svg">
<g clip-path="url(#clip0_2_49)">
<path d="M31.5 72.5C25.8333 72.5 21 71.5667 17 69.7C13.0667 67.7667 9.86667 65.1333 7.4 61.8C5 58.4667 3.23333 54.7 2.1 50.5C0.966667 46.2333 0.4 41.8 0.4 37.2V0.999996H14.2V37.2C14.2 40.1333 14.4667 43 15 45.8C15.6 48.5333 16.5667 51 17.9 53.2C19.2333 55.4 21 57.1333 23.2 58.4C25.4 59.6667 28.1333 60.3 31.4 60.3C34.7333 60.3 37.5 59.6667 39.7 58.4C41.9667 57.0667 43.7333 55.3 45 53.1C46.3333 50.9 47.3 48.4333 47.9 45.7C48.5 42.9 48.8 40.0667 48.8 37.2V0.999996H62.5V37.2C62.5 42.0667 61.9 46.6333 60.7 50.9C59.5667 55.1667 57.7333 58.9333 55.2 62.2C52.7333 65.4 49.5333 67.9333 45.6 69.8C41.6667 71.6 36.9667 72.5 31.5 72.5ZM72.1 36C72.1 31.6667 72.8667 27.4333 74.4 23.3C76 19.1 78.3 15.3 81.3 11.9C84.3 8.43333 87.9667 5.7 92.3 3.7C96.6333 1.63333 101.567 0.599995 107.1 0.599995C113.633 0.599995 119.267 2.03333 124 4.9C128.8 7.76667 132.367 11.5 134.7 16.1L124.1 23.4C122.9 20.7333 121.333 18.6333 119.4 17.1C117.467 15.5 115.4 14.4 113.2 13.8C111 13.1333 108.833 12.8 106.7 12.8C103.233 12.8 100.2 13.5 97.6 14.9C95.0667 16.3 92.9333 18.1333 91.2 20.4C89.4667 22.6667 88.1667 25.2 87.3 28C86.5 30.8 86.1 33.6 86.1 36.4C86.1 39.5333 86.6 42.5667 87.6 45.5C88.6 48.3667 90 50.9333 91.8 53.2C93.6667 55.4 95.8667 57.1667 98.4 58.5C101 59.7667 103.833 60.4 106.9 60.4C109.1 60.4 111.333 60.0333 113.6 59.3C115.867 58.5667 117.967 57.4 119.9 55.8C121.833 54.2 123.333 52.1333 124.4 49.6L135.7 56.1C134.3 59.6333 132 62.6333 128.8 65.1C125.667 67.5667 122.133 69.4333 118.2 70.7C114.267 71.9667 110.367 72.6 106.5 72.6C101.433 72.6 96.8 71.5667 92.6 69.5C88.4 67.3667 84.7667 64.5667 81.7 61.1C78.7 57.5667 76.3333 53.6333 74.6 49.3C72.9333 44.9 72.1 40.4667 72.1 36ZM226.178 53.7C226.178 57.7 225.145 61.0667 223.078 63.8C221.011 66.4667 218.211 68.5 214.678 69.9C211.211 71.3 207.411 72 203.278 72H168.978V0.999996H206.978C210.311 0.999996 213.178 1.9 215.578 3.7C218.045 5.43333 219.911 7.7 221.178 10.5C222.511 13.2333 223.178 16.1 223.178 19.1C223.178 22.5 222.311 25.7333 220.578 28.8C218.845 31.8667 216.311 34.1333 212.978 35.6C217.045 36.8 220.245 38.9667 222.578 42.1C224.978 45.2333 226.178 49.1 226.178 53.7ZM212.278 51.1C212.278 49.3 211.911 47.7 211.178 46.3C210.445 44.8333 209.445 43.7 208.178 42.9C206.978 42.0333 205.578 41.6 203.978 41.6H182.778V60.3H203.278C204.945 60.3 206.445 59.9 207.778 59.1C209.178 58.2333 210.278 57.1 211.078 55.7C211.878 54.3 212.278 52.7667 212.278 51.1ZM182.778 12.8V30.7H201.178C202.711 30.7 204.111 30.3333 205.378 29.6C206.645 28.8667 207.645 27.8333 208.378 26.5C209.178 25.1667 209.578 23.5667 209.578 21.7C209.578 19.9 209.211 18.3333 208.478 17C207.811 15.6667 206.878 14.6333 205.678 13.9C204.545 13.1667 203.245 12.8 201.778 12.8H182.778ZM286.247 59.9V72H236.947V0.999996H285.347V13.1H250.747V30.2H280.647V41.4H250.747V59.9H286.247ZM297.005 72V0.999996H328.405C331.672 0.999996 334.672 1.66666 337.405 2.99999C340.205 4.33333 342.605 6.13333 344.605 8.4C346.672 10.6667 348.239 13.2 349.305 16C350.439 18.8 351.005 21.6667 351.005 24.6C351.005 27.6 350.472 30.5 349.405 33.3C348.405 36.0333 346.939 38.4333 345.005 40.5C343.072 42.5667 340.805 44.1667 338.205 45.3L354.405 72H339.205L324.605 48.2H310.805V72H297.005ZM310.805 36.1H328.105C329.839 36.1 331.372 35.6 332.705 34.6C334.039 33.5333 335.105 32.1333 335.905 30.4C336.705 28.6667 337.105 26.7333 337.105 24.6C337.105 22.3333 336.639 20.3667 335.705 18.7C334.772 16.9667 333.572 15.6 332.105 14.6C330.705 13.6 329.172 13.1 327.505 13.1H310.805V36.1ZM363.509 72V1.09999H377.309V34.8L407.109 0.999996H422.309L395.109 32.5L424.009 72H408.409L386.309 41.4L377.309 50.8V72H363.509ZM479.704 59.9V72H430.404V0.999996H478.804V13.1H444.204V30.2H474.104V41.4H444.204V59.9H479.704ZM490.463 72V0.999996H504.263V59.9H540.463V72H490.463ZM598.161 59.9V72H548.861V0.999996H597.261V13.1H562.661V30.2H592.561V41.4H562.661V59.9H598.161ZM616.92 0.999996L634.42 34.4L652.22 0.999996H667.12L641.32 47.2V72H627.62V47L601.92 0.999996H616.92ZM2.5 189V118H27.1C34.7 118 41.0333 119.6 46.1 122.8C51.2333 125.933 55.0667 130.2 57.6 135.6C60.1333 140.933 61.4 146.867 61.4 153.4C61.4 160.6 60 166.867 57.2 172.2C54.4 177.533 50.4333 181.667 45.3 184.6C40.1667 187.533 34.1 189 27.1 189H2.5ZM52.3 153.4C52.3 148.067 51.3 143.333 49.3 139.2C47.3667 135.067 44.5333 131.833 40.8 129.5C37.0667 127.167 32.5 126 27.1 126H11.5V181H27.1C32.5667 181 37.1667 179.8 40.9 177.4C44.6333 174.933 47.4667 171.633 49.4 167.5C51.3333 163.3 52.3 158.6 52.3 153.4ZM93.143 118H100.743L129.743 189H120.143L111.743 168.2H81.943L73.643 189H64.043L93.143 118ZM109.743 161.2L96.943 128.4L83.743 161.2H109.743ZM183.68 126H159.18V189H150.18V126H125.68V118H183.68V126ZM208.768 118H216.368L245.368 189H235.768L227.368 168.2H197.568L189.268 189H179.668L208.768 118ZM225.368 161.2L212.568 128.4L199.368 161.2H225.368ZM318.712 132.9C317.912 131.967 316.845 131.067 315.512 130.2C314.178 129.333 312.678 128.567 311.012 127.9C309.345 127.167 307.512 126.6 305.512 126.2C303.578 125.733 301.545 125.5 299.412 125.5C293.945 125.5 289.912 126.533 287.312 128.6C284.712 130.667 283.412 133.5 283.412 137.1C283.412 139.633 284.078 141.633 285.412 143.1C286.745 144.567 288.778 145.767 291.512 146.7C294.312 147.633 297.845 148.6 302.112 149.6C307.045 150.667 311.312 151.967 314.912 153.5C318.512 155.033 321.278 157.1 323.212 159.7C325.145 162.233 326.112 165.633 326.112 169.9C326.112 173.3 325.445 176.267 324.112 178.8C322.845 181.267 321.045 183.333 318.712 185C316.378 186.6 313.645 187.8 310.512 188.6C307.378 189.333 303.978 189.7 300.312 189.7C296.712 189.7 293.178 189.333 289.712 188.6C286.312 187.8 283.078 186.667 280.012 185.2C276.945 183.733 274.078 181.9 271.412 179.7L275.712 172.1C276.778 173.233 278.145 174.367 279.812 175.5C281.545 176.567 283.478 177.567 285.612 178.5C287.812 179.433 290.178 180.2 292.712 180.8C295.245 181.333 297.845 181.6 300.512 181.6C305.578 181.6 309.512 180.7 312.312 178.9C315.112 177.033 316.512 174.333 316.512 170.8C316.512 168.133 315.712 166 314.112 164.4C312.578 162.8 310.278 161.467 307.212 160.4C304.145 159.333 300.412 158.267 296.012 157.2C291.212 156 287.178 154.7 283.912 153.3C280.645 151.833 278.178 149.933 276.512 147.6C274.912 145.267 274.112 142.233 274.112 138.5C274.112 133.967 275.212 130.133 277.412 127C279.612 123.867 282.645 121.5 286.512 119.9C290.378 118.3 294.745 117.5 299.612 117.5C302.812 117.5 305.778 117.833 308.512 118.5C311.312 119.167 313.912 120.1 316.312 121.3C318.712 122.5 320.912 123.933 322.912 125.6L318.712 132.9ZM338.891 118L360.391 155L382.091 118H391.891L364.891 163.1V189H355.891V162.9L328.991 118H338.891ZM440.782 132.9C439.982 131.967 438.915 131.067 437.582 130.2C436.249 129.333 434.749 128.567 433.082 127.9C431.415 127.167 429.582 126.6 427.582 126.2C425.649 125.733 423.615 125.5 421.482 125.5C416.015 125.5 411.982 126.533 409.382 128.6C406.782 130.667 405.482 133.5 405.482 137.1C405.482 139.633 406.149 141.633 407.482 143.1C408.815 144.567 410.849 145.767 413.582 146.7C416.382 147.633 419.915 148.6 424.182 149.6C429.115 150.667 433.382 151.967 436.982 153.5C440.582 155.033 443.349 157.1 445.282 159.7C447.215 162.233 448.182 165.633 448.182 169.9C448.182 173.3 447.515 176.267 446.182 178.8C444.915 181.267 443.115 183.333 440.782 185C438.449 186.6 435.715 187.8 432.582 188.6C429.449 189.333 426.049 189.7 422.382 189.7C418.782 189.7 415.249 189.333 411.782 188.6C408.382 187.8 405.149 186.667 402.082 185.2C399.015 183.733 396.149 181.9 393.482 179.7L397.782 172.1C398.849 173.233 400.215 174.367 401.882 175.5C403.615 176.567 405.549 177.567 407.682 178.5C409.882 179.433 412.249 180.2 414.782 180.8C417.315 181.333 419.915 181.6 422.582 181.6C427.649 181.6 431.582 180.7 434.382 178.9C437.182 177.033 438.582 174.333 438.582 170.8C438.582 168.133 437.782 166 436.182 164.4C434.649 162.8 432.349 161.467 429.282 160.4C426.215 159.333 422.482 158.267 418.082 157.2C413.282 156 409.249 154.7 405.982 153.3C402.715 151.833 400.249 149.933 398.582 147.6C396.982 145.267 396.182 142.233 396.182 138.5C396.182 133.967 397.282 130.133 399.482 127C401.682 123.867 404.715 121.5 408.582 119.9C412.449 118.3 416.815 117.5 421.682 117.5C424.882 117.5 427.849 117.833 430.582 118.5C433.382 119.167 435.982 120.1 438.382 121.3C440.782 122.5 442.982 123.933 444.982 125.6L440.782 132.9ZM511.22 126H486.72V189H477.72V126H453.22V118H511.22V126ZM569.645 181V189H521.445V118H568.745V126H530.445V149H563.745V156.5H530.445V181H569.645ZM643.392 189V134.8L619.992 176.5H614.492L590.992 134.8V189H581.992V118H591.492L617.192 164.1L642.992 118H652.392V189H643.392ZM711.095 132.9C710.295 131.967 709.228 131.067 707.895 130.2C706.561 129.333 705.061 128.567 703.395 127.9C701.728 127.167 699.895 126.6 697.895 126.2C695.961 125.733 693.928 125.5 691.795 125.5C686.328 125.5 682.295 126.533 679.695 128.6C677.095 130.667 675.795 133.5 675.795 137.1C675.795 139.633 676.461 141.633 677.795 143.1C679.128 144.567 681.161 145.767 683.895 146.7C686.695 147.633 690.228 148.6 694.495 149.6C699.428 150.667 703.695 151.967 707.295 153.5C710.895 155.033 713.661 157.1 715.595 159.7C717.528 162.233 718.495 165.633 718.495 169.9C718.495 173.3 717.828 176.267 716.495 178.8C715.228 181.267 713.428 183.333 711.095 185C708.761 186.6 706.028 187.8 702.895 188.6C699.761 189.333 696.361 189.7 692.695 189.7C689.095 189.7 685.561 189.333 682.095 188.6C678.695 187.8 675.461 186.667 672.395 185.2C669.328 183.733 666.461 181.9 663.795 179.7L668.095 172.1C669.161 173.233 670.528 174.367 672.195 175.5C673.928 176.567 675.861 177.567 677.995 178.5C680.195 179.433 682.561 180.2 685.095 180.8C687.628 181.333 690.228 181.6 692.895 181.6C697.961 181.6 701.895 180.7 704.695 178.9C707.495 177.033 708.895 174.333 708.895 170.8C708.895 168.133 708.095 166 706.495 164.4C704.961 162.8 702.661 161.467 699.595 160.4C696.528 159.333 692.795 158.267 688.395 157.2C683.595 156 679.561 154.7 676.295 153.3C673.028 151.833 670.561 149.933 668.895 147.6C667.295 145.267 666.495 142.233 666.495 138.5C666.495 133.967 667.595 130.133 669.795 127C671.995 123.867 675.028 121.5 678.895 119.9C682.761 118.3 687.128 117.5 691.995 117.5C695.195 117.5 698.161 117.833 700.895 118.5C703.695 119.167 706.295 120.1 708.695 121.3C711.095 122.5 713.295 123.933 715.295 125.6L711.095 132.9ZM774.1 118H781.7L810.7 189H801.1L792.7 168.2H762.9L754.6 189H745L774.1 118ZM790.7 161.2L777.9 128.4L764.7 161.2H790.7ZM829.176 134.6V189H820.176V118H827.776L871.176 173.5V118.1H880.176V189H871.976L829.176 134.6ZM897.129 189V118H921.729C929.329 118 935.662 119.6 940.729 122.8C945.862 125.933 949.696 130.2 952.229 135.6C954.762 140.933 956.029 146.867 956.029 153.4C956.029 160.6 954.629 166.867 951.829 172.2C949.029 177.533 945.062 181.667 939.929 184.6C934.796 187.533 928.729 189 921.729 189H897.129ZM946.929 153.4C946.929 148.067 945.929 143.333 943.929 139.2C941.996 135.067 939.162 131.833 935.429 129.5C931.696 127.167 927.129 126 921.729 126H906.129V181H921.729C927.196 181 931.796 179.8 935.529 177.4C939.262 174.933 942.096 171.633 944.029 167.5C945.962 163.3 946.929 158.6 946.929 153.4ZM2.5 306V235H49.4V243H11.5V266.7H43.4V274.2H11.5V306H2.5ZM88.3313 306.5C83.3313 306.5 78.7979 305.5 74.7313 303.5C70.6646 301.5 67.1313 298.8 64.1313 295.4C61.1979 291.933 58.9313 288.067 57.3313 283.8C55.7313 279.467 54.9313 275.033 54.9313 270.5C54.9313 265.767 55.7646 261.267 57.4313 257C59.1646 252.667 61.5313 248.833 64.5313 245.5C67.5979 242.1 71.1646 239.433 75.2313 237.5C79.2979 235.5 83.7313 234.5 88.5313 234.5C93.5313 234.5 98.0646 235.533 102.131 237.6C106.198 239.667 109.698 242.433 112.631 245.9C115.565 249.367 117.831 253.233 119.431 257.5C121.031 261.767 121.831 266.133 121.831 270.6C121.831 275.333 120.998 279.867 119.331 284.2C117.665 288.467 115.298 292.3 112.231 295.7C109.231 299.033 105.698 301.667 101.631 303.6C97.5646 305.533 93.1313 306.5 88.3313 306.5ZM64.0313 270.5C64.0313 274.1 64.5979 277.6 65.7312 281C66.9313 284.333 68.5979 287.3 70.7313 289.9C72.8646 292.5 75.4313 294.567 78.4313 296.1C81.4313 297.633 84.7646 298.4 88.4313 298.4C92.2313 298.4 95.6313 297.6 98.6313 296C101.631 294.4 104.165 292.267 106.231 289.6C108.365 286.933 109.965 283.933 111.031 280.6C112.165 277.267 112.731 273.9 112.731 270.5C112.731 266.9 112.131 263.433 110.931 260.1C109.798 256.767 108.131 253.8 105.931 251.2C103.798 248.533 101.231 246.467 98.2313 245C95.2979 243.467 92.0313 242.7 88.4313 242.7C84.6313 242.7 81.2313 243.5 78.2313 245.1C75.2313 246.633 72.6646 248.733 70.5313 251.4C68.4646 254.067 66.8646 257.067 65.7312 260.4C64.5979 263.667 64.0313 267.033 64.0313 270.5ZM163.636 306.5C157.969 306.5 153.203 305.533 149.336 303.6C145.469 301.6 142.369 298.933 140.036 295.6C137.703 292.2 136.003 288.367 134.936 284.1C133.869 279.833 133.336 275.433 133.336 270.9V235H142.336V270.9C142.336 274.367 142.669 277.767 143.336 281.1C144.069 284.367 145.236 287.3 146.836 289.9C148.436 292.5 150.603 294.567 153.336 296.1C156.069 297.633 159.469 298.4 163.536 298.4C167.669 298.4 171.103 297.633 173.836 296.1C176.569 294.5 178.736 292.4 180.336 289.8C181.936 287.133 183.069 284.167 183.736 280.9C184.469 277.633 184.836 274.3 184.836 270.9V235H193.836V270.9C193.836 275.7 193.269 280.267 192.136 284.6C191.069 288.867 189.336 292.633 186.936 295.9C184.536 299.167 181.403 301.767 177.536 303.7C173.736 305.567 169.103 306.5 163.636 306.5ZM218.824 251.6V306H209.824V235H217.424L260.824 290.5V235.1H269.824V306H261.624L218.824 251.6ZM286.777 306V235H311.377C318.977 235 325.311 236.6 330.377 239.8C335.511 242.933 339.344 247.2 341.877 252.6C344.411 257.933 345.677 263.867 345.677 270.4C345.677 277.6 344.277 283.867 341.477 289.2C338.677 294.533 334.711 298.667 329.577 301.6C324.444 304.533 318.377 306 311.377 306H286.777ZM336.577 270.4C336.577 265.067 335.577 260.333 333.577 256.2C331.644 252.067 328.811 248.833 325.077 246.5C321.344 244.167 316.777 243 311.377 243H295.777V298H311.377C316.844 298 321.444 296.8 325.177 294.4C328.911 291.933 331.744 288.633 333.677 284.5C335.611 280.3 336.577 275.6 336.577 270.4ZM377.42 235H385.02L414.02 306H404.42L396.02 285.2H366.22L357.92 306H348.32L377.42 235ZM394.02 278.2L381.22 245.4L368.02 278.2H394.02ZM467.958 243H443.458V306H434.458V243H409.958V235H467.958V243ZM478.184 306V235H487.184V306H478.184ZM532.96 306.5C527.96 306.5 523.427 305.5 519.36 303.5C515.293 301.5 511.76 298.8 508.76 295.4C505.827 291.933 503.56 288.067 501.96 283.8C500.36 279.467 499.56 275.033 499.56 270.5C499.56 265.767 500.393 261.267 502.06 257C503.793 252.667 506.16 248.833 509.16 245.5C512.227 242.1 515.793 239.433 519.86 237.5C523.927 235.5 528.36 234.5 533.16 234.5C538.16 234.5 542.693 235.533 546.76 237.6C550.827 239.667 554.327 242.433 557.26 245.9C560.193 249.367 562.46 253.233 564.06 257.5C565.66 261.767 566.46 266.133 566.46 270.6C566.46 275.333 565.627 279.867 563.96 284.2C562.293 288.467 559.927 292.3 556.86 295.7C553.86 299.033 550.327 301.667 546.26 303.6C542.193 305.533 537.76 306.5 532.96 306.5ZM508.66 270.5C508.66 274.1 509.227 277.6 510.36 281C511.56 284.333 513.227 287.3 515.36 289.9C517.493 292.5 520.06 294.567 523.06 296.1C526.06 297.633 529.393 298.4 533.06 298.4C536.86 298.4 540.26 297.6 543.26 296C546.26 294.4 548.793 292.267 550.86 289.6C552.993 286.933 554.593 283.933 555.66 280.6C556.793 277.267 557.36 273.9 557.36 270.5C557.36 266.9 556.76 263.433 555.56 260.1C554.427 256.767 552.76 253.8 550.56 251.2C548.427 248.533 545.86 246.467 542.86 245C539.927 243.467 536.66 242.7 533.06 242.7C529.26 242.7 525.86 243.5 522.86 245.1C519.86 246.633 517.293 248.733 515.16 251.4C513.093 254.067 511.493 257.067 510.36 260.4C509.227 263.667 508.66 267.033 508.66 270.5ZM587.965 251.6V306H578.965V235H586.565L629.965 290.5V235.1H638.965V306H630.765L587.965 251.6ZM697.618 249.9C696.818 248.967 695.751 248.067 694.418 247.2C693.085 246.333 691.585 245.567 689.918 244.9C688.251 244.167 686.418 243.6 684.418 243.2C682.485 242.733 680.451 242.5 678.318 242.5C672.851 242.5 668.818 243.533 666.218 245.6C663.618 247.667 662.318 250.5 662.318 254.1C662.318 256.633 662.985 258.633 664.318 260.1C665.651 261.567 667.685 262.767 670.418 263.7C673.218 264.633 676.751 265.6 681.018 266.6C685.951 267.667 690.218 268.967 693.818 270.5C697.418 272.033 700.185 274.1 702.118 276.7C704.051 279.233 705.018 282.633 705.018 286.9C705.018 290.3 704.351 293.267 703.018 295.8C701.751 298.267 699.951 300.333 697.618 302C695.285 303.6 692.551 304.8 689.418 305.6C686.285 306.333 682.885 306.7 679.218 306.7C675.618 306.7 672.085 306.333 668.618 305.6C665.218 304.8 661.985 303.667 658.918 302.2C655.851 300.733 652.985 298.9 650.318 296.7L654.618 289.1C655.685 290.233 657.051 291.367 658.718 292.5C660.451 293.567 662.385 294.567 664.518 295.5C666.718 296.433 669.085 297.2 671.618 297.8C674.151 298.333 676.751 298.6 679.418 298.6C684.485 298.6 688.418 297.7 691.218 295.9C694.018 294.033 695.418 291.333 695.418 287.8C695.418 285.133 694.618 283 693.018 281.4C691.485 279.8 689.185 278.467 686.118 277.4C683.051 276.333 679.318 275.267 674.918 274.2C670.118 273 666.085 271.7 662.818 270.3C659.551 268.833 657.085 266.933 655.418 264.6C653.818 262.267 653.018 259.233 653.018 255.5C653.018 250.967 654.118 247.133 656.318 244C658.518 240.867 661.551 238.5 665.418 236.9C669.285 235.3 673.651 234.5 678.518 234.5C681.718 234.5 684.685 234.833 687.418 235.5C690.218 236.167 692.818 237.1 695.218 238.3C697.618 239.5 699.818 240.933 701.818 242.6L697.618 249.9Z" fill="black"/>
</g>
<defs>
<clipPath id="clip0_2_49">
<rect width="956" height="307" fill="white"/>
</clipPath>
</defs>
</svg>
